Coordinates
version=1
nRows=9
nColumns=24
inDegrees=yes

Units are S.I. units (second, meters, Newtons, ...)
Angles are in degrees.

endheader
time	pelvis_tilt	pelvis_list	pelvis_rotation	pelvis_tx	pelvis_ty	pelvis_tz	hip_flexion_r	hip_adduction_r	hip_rotation_r	knee_angle_r	ankle_angle_r	subtalar_angle_r	mtp_angle_r	hip_flexion_l	hip_adduction_l	hip_rotation_l	knee_angle_l	ankle_angle_l	subtalar_angle_l	mtp_angle_l	lumbar_extension	lumbar_bending	lumbar_rotation
      4.44000000	     -8.01881486	     -5.16031147	      3.90914508	     -0.75589314	     -0.00100952	     -0.28018506	     13.26183743	      9.95163333	      4.92546815	    -13.65350504	      0.93933663	     -2.19408319	     13.74939756	     27.29685206	     -8.17871604	     -0.44345888	    -63.30767068	    -12.32363228	     -6.54641032	     22.04832124	      7.49155862	      4.26443088	     -0.24305667
      4.44500000	     -7.95392457	     -4.94347354	      3.59026131	     -0.75134919	     -0.00054268	     -0.27934830	     12.72290302	      9.87108543	      5.39693662	    -13.45855484	      1.19368027	     -2.22389412	     13.23277016	     27.68291559	     -8.02904965	     -0.83904770	    -62.71905352	    -11.75358553	     -6.30575120	     22.66289151	      7.33201145	      4.08978207	      0.24806835
      4.45000000	     -7.99451109	     -4.73515050	      3.35083335	     -0.74686090	     -0.00024176	     -0.27869706	     12.32560692	      9.73565435	      5.60411647	    -13.26323079	      1.43923668	     -2.03879678	     13.26089321	     28.20548496	     -7.81337505	     -1.13160766	    -62.10434274	    -11.15111214	     -6.05047415	     22.97212703	      7.29748360	      3.90456063	      0.61495363
      4.45500000	     -8.00015088	     -4.53645239	      3.12517780	     -0.74236933	      0.00005842	     -0.27806620	     11.87594165	      9.60496218	      5.81075897	    -13.03254228	      1.65637136	     -1.88577766	     13.30114855	     28.66982561	     -7.59988455	     -1.39736618	    -61.41583474	    -10.58397480	     -5.80847311	     23.28144971	      7.22900726	      3.72781882	      0.96451236
      4.46000000	     -7.99430874	     -4.35377111	      2.90769303	     -0.73788701	      0.00031710	     -0.27745807	     11.40989970	      9.48364196	      5.99516675	    -12.78353885	      1.86169462	     -1.73304736	     13.38041502	     29.10617744	     -7.39408217	     -1.63588298	    -60.66474619	    -10.04293925	     -5.58331519	     23.57525212	      7.14993940	      3.56759787	      1.29802909
      4.46500000	     -7.98069359	     -4.18314453	      2.69551605	     -0.73341271	      0.00053264	     -0.27688293	     10.93465721	      9.36680458	      6.16247733	    -12.52428868	      2.06018697	     -1.57579521	     13.50442446	     29.51613431	     -7.19237572	     -1.84906703	    -59.85086426	     -9.52914394	     -5.36974838	     23.84246870	      7.06629996	      3.42192022	      1.62112290
      4.47000000	     -7.98777952	     -4.02200145	      2.51577919	     -0.72892836	      0.00066528	     -0.27637390	     10.47712599	      9.24805611	      6.30291581	    -12.24904467	      2.26523668	     -1.46036730	     13.64084844	     29.93952178	     -6.97108020	     -2.00652630	    -58.98414415	     -9.06156651	     -5.18808458	     24.03848842	      7.01500371	      3.28089852	      1.89744355
      4.47500000	     -7.96181710	     -3.88148139	      2.29433387	     -0.72447135	      0.00078398	     -0.27583074	      9.99444824	      9.15592784	      6.45768778	    -11.98788109	      2.44662768	     -1.30491872	     13.82330231	     30.29598023	     -6.79395185	     -2.18000146	    -58.05313357	     -8.58793931	     -5.01254444	     24.21522807	      6.91958876	      3.17422234	      2.21644525
      4.48000000	     -7.90804405	     -3.75706355	      2.06783431	     -0.72002829	      0.00089271	     -0.27530065	      9.48469632	      9.07844343	      6.62193015	    -11.72566229	      2.58815801	     -1.15205845	     14.05749516	     30.59877449	     -6.62820544	     -2.32448728	    -57.06083264	     -8.15013312	     -4.88227402	     24.32293594	      6.79048297	      3.08287189	      2.54817372
